<?xml version="1.0" encoding="UTF-8" standalone="no"?><!DOCTYPE svg PUBLIC "-//W3C//DTD SVG 1.1//EN" "http://www.w3.org/Graphics/SVG/1.1/DTD/svg11.dtd"><svg width="240" height="360" viewBox="0 0 240 360" version="1.1" xmlns="http://www.w3.org/2000/svg" xmlns:xlink="http://www.w3.org/1999/xlink" xml:space="preserve" style="fill-rule:evenodd;clip-rule:evenodd;stroke-linejoin:round;stroke-miterlimit:1.41421;"><g id="Camada-1"><path id="rect4168-1-7-3-3-7" d="M15,38.601c0,-8.888 6.721,-16.103 15,-16.103l180,0c8.279,0 15,7.215 15,16.103l0,289.852c0,8.888 -6.721,16.103 -15,16.103l-180,0c-8.279,0 -15,-7.215 -15,-16.103l0,-289.852l0,0Z"/><g id="g4787"><path id="path4172-6-3-2-6-4-8-4" d="M212.017,53.703c35.931,28.357 23.87,108.982 -26.915,179.934c-50.786,70.952 -121.189,105.534 -157.119,77.177c-35.931,-28.356 -23.87,-108.982 26.915,-179.934c50.786,-70.952 121.189,-105.534 157.119,-77.177l0,0Z" style="fill:#d40000;"/><path id="rect3362-7-7-19-2-59-9-0" d="M15,0c-8.31,0 -15,7.024 -15,15.751l0,328.498c0,8.727 6.69,15.751 15,15.751l210,0c8.31,0 15,-7.024 15,-15.751l0,-328.498c0,-8.727 -6.69,-15.751 -15,-15.751l-210,0l0,0Zm14.999,22.5l180.001,0c8.31,0 15,7.024 15,15.751l0,283.498c0,8.727 -6.69,15.751 -15,15.751l-180.001,0c-8.309,0 -14.999,-7.024 -14.999,-15.751l0,-283.498c0,-8.727 6.69,-15.751 14.999,-15.751l0,0Z" style="fill:#fff;fill-rule:nonzero;"/></g><g><path d="M79.553,236.103c-6.971,3.29 -13.192,3.94 -18.666,1.954c-5.474,-1.987 -9.839,-6.782 -13.093,-14.386l-11.99,-28.015l13.374,-6.311l11.868,27.73c1.505,3.517 3.419,5.798 5.744,6.843c2.324,1.046 4.844,0.928 7.56,-0.354c2.715,-1.281 4.487,-3.145 5.316,-5.594c0.83,-2.447 0.512,-5.382 -0.952,-8.803l-12.02,-28.087l13.374,-6.311l11.837,27.659c3.336,7.794 3.864,14.527 1.587,20.201c-2.278,5.672 -6.924,10.164 -13.939,13.474l0,0Z" style="fill:url(#_Linear1);fill-rule:nonzero;"/><path d="M109.23,220.985l-21.355,-49.9l12.287,-5.798l30.841,17.149l-11.288,-26.375l13.034,-6.151l21.356,49.9l-11.541,5.446l-32.014,-17.795l11.715,27.373l-13.035,6.151l0,0Z" style="fill:url(#_Linear2);fill-rule:nonzero;"/><path d="M186.847,185.559c-7.287,3.439 -14.435,3.799 -21.447,1.081c-7.011,-2.718 -12.072,-7.713 -15.184,-14.984c-3.092,-7.223 -3.26,-14.513 -0.505,-21.867c2.754,-7.355 7.775,-12.752 15.062,-16.19c7.286,-3.438 14.435,-3.798 21.446,-1.081c7.011,2.718 12.073,7.713 15.185,14.984c3.091,7.223 3.26,14.513 0.505,21.867c-2.755,7.355 -7.776,12.752 -15.062,16.19l0,0Zm-5.203,-12.539c3.575,-1.687 5.924,-4.366 7.045,-8.037c1.122,-3.671 0.879,-7.384 -0.727,-11.138c-1.586,-3.707 -4.098,-6.335 -7.535,-7.883c-3.438,-1.548 -6.921,-1.49 -10.451,0.176c-3.53,1.666 -5.857,4.334 -6.978,8.005c-1.122,3.671 -0.879,7.384 0.728,11.138c1.586,3.707 4.087,6.34 7.501,7.899c3.414,1.559 6.886,1.506 10.417,-0.16Z" style="fill:url(#_Linear3);fill-rule:nonzero;"/></g><g><path d="M80.325,230.591c-6.97,3.289 -13.192,3.94 -18.666,1.954c-5.474,-1.987 -9.838,-6.782 -13.092,-14.386l-11.99,-28.015l13.374,-6.311l11.868,27.73c1.504,3.517 3.419,5.798 5.743,6.844c2.325,1.045 4.845,0.927 7.56,-0.355c2.716,-1.281 4.488,-3.146 5.317,-5.593c0.829,-2.448 0.512,-5.383 -0.952,-8.804l-12.021,-28.087l13.374,-6.311l11.837,27.659c3.336,7.794 3.865,14.527 1.587,20.2c-2.278,5.673 -6.924,10.165 -13.939,13.475l0,0Z" style="fill:url(#_Linear4);fill-rule:nonzero;stroke:#414141;stroke-width:1.5px;"/><path d="M110.003,215.473l-21.356,-49.9l12.288,-5.798l30.84,17.15l-11.288,-26.377l13.035,-6.15l21.355,49.9l-11.541,5.446l-32.014,-17.795l11.716,27.373l-13.035,6.151l0,0Z" style="fill:url(#_Linear5);fill-rule:nonzero;stroke:#414141;stroke-width:1.5px;"/><path d="M187.62,180.047c-7.287,3.439 -14.436,3.799 -21.448,1.081c-7.01,-2.718 -12.072,-7.712 -15.184,-14.983c-3.092,-7.224 -3.26,-14.514 -0.505,-21.868c2.755,-7.355 7.775,-12.752 15.062,-16.19c7.287,-3.439 14.436,-3.798 21.447,-1.081c7.011,2.718 12.072,7.712 15.184,14.984c3.092,7.223 3.26,14.513 0.506,21.868c-2.755,7.354 -7.776,12.751 -15.062,16.189l0,0Zm-5.204,-12.539c3.576,-1.687 5.924,-4.366 7.046,-8.037c1.122,-3.671 0.879,-7.384 -0.727,-11.138c-1.587,-3.707 -4.099,-6.335 -7.536,-7.883c-3.437,-1.548 -6.921,-1.49 -10.451,0.176c-3.53,1.666 -5.856,4.335 -6.977,8.005c-1.122,3.672 -0.88,7.384 0.727,11.138c1.587,3.707 4.087,6.34 7.502,7.899c3.414,1.559 6.886,1.506 10.416,-0.16Z" style="fill:url(#_Linear6);fill-rule:nonzero;stroke:#414141;stroke-width:1.5px;"/></g></g><defs><linearGradient id="_Linear1" x1="0" y1="0" x2="1" y2="0" gradientUnits="userSpaceOnUse" gradientTransform="matrix(-5.3497,-12.6005,11.9999,-5.61741,118.542,215.699)"><stop offset="0%" style="stop-color:#bababa;stop-opacity:1"/><stop offset="100%" style="stop-color:#7b7b7b;stop-opacity:1"/></linearGradient><linearGradient id="_Linear2" x1="0" y1="0" x2="1" y2="0" gradientUnits="userSpaceOnUse" gradientTransform="matrix(-5.3497,-12.6005,11.9999,-5.61741,118.542,215.699)"><stop offset="0%" style="stop-color:#bababa;stop-opacity:1"/><stop offset="100%" style="stop-color:#7b7b7b;stop-opacity:1"/></linearGradient><linearGradient id="_Linear3" x1="0" y1="0" x2="1" y2="0" gradientUnits="userSpaceOnUse" gradientTransform="matrix(-5.3497,-12.6005,11.9999,-5.61741,118.542,215.699)"><stop offset="0%" style="stop-color:#bababa;stop-opacity:1"/><stop offset="100%" style="stop-color:#7b7b7b;stop-opacity:1"/></linearGradient><linearGradient id="_Linear4" x1="0" y1="0" x2="1" y2="0" gradientUnits="userSpaceOnUse" gradientTransform="matrix(-10.6259,-24.9097,23.7226,-11.1577,103.326,198.218)"><stop offset="0%" style="stop-color:#fff;stop-opacity:1"/><stop offset="100%" style="stop-color:#ffbb10;stop-opacity:1"/></linearGradient><linearGradient id="_Linear5" x1="0" y1="0" x2="1" y2="0" gradientUnits="userSpaceOnUse" gradientTransform="matrix(-10.6259,-24.9097,23.7226,-11.1577,103.326,198.218)"><stop offset="0%" style="stop-color:#fff;stop-opacity:1"/><stop offset="100%" style="stop-color:#ffbb10;stop-opacity:1"/></linearGradient><linearGradient id="_Linear6" x1="0" y1="0" x2="1" y2="0" gradientUnits="userSpaceOnUse" gradientTransform="matrix(-10.6259,-24.9097,23.7226,-11.1577,103.326,198.218)"><stop offset="0%" style="stop-color:#fff;stop-opacity:1"/><stop offset="100%" style="stop-color:#ffbb10;stop-opacity:1"/></linearGradient></defs></svg>
